<?xml version="1.0" encoding="UTF-8"?>
<svg width="315px" height="232px" viewBox="0 0 315 232" version="1.1" xmlns="http://www.w3.org/2000/svg" xmlns:xlink="http://www.w3.org/1999/xlink">
    <title>Hero Image</title>
    <g id="Website" stroke="none" stroke-width="1" fill="none" fill-rule="evenodd">
        <g id="Home" transform="translate(-1073.000000, -111.000000)">
            <g id="Hero" transform="translate(312.000000, 96.000000)">
                <g id="Illustrations/Doggie" transform="translate(742.000000, 0.000000)">
                    <path d="M305.26827,233.743471 C307.04069,234.643413 308.697299,234.642731 310.44068,235.343103 C312.170924,236.038359 312.622067,238.9207 314.101676,239.264916 C307.242581,239.976887 300.48685,241.485775 293.54444,240.735596 C294.145618,238.318236 293.065987,235.844247 294.512063,233.575968 C298.378407,229.966304 300.892014,231.521247 305.26827,233.743471 Z M276.303568,67.6020042 C276.39276,69.3015927 276.520324,69.9770615 277.74273,71.0735042 C278.700674,71.9325094 279.239625,70.6518479 279.330545,72.3296031 C279.383092,73.2974339 278.363959,73.7832255 277.969512,74.5654729 C276.003152,78.4627229 277.360383,83.4963297 278.326623,87.3785693 C280.286068,95.2505094 285.071982,103.809517 281.699648,111.810752 C281.359822,112.617561 281.086717,114.366616 280.429881,114.984431 C279.563895,114.532754 278.931604,114.730278 278.532662,115.576319 C278.293436,115.841731 278.054209,116.107142 277.814982,116.372212 C276.29942,117.755218 274.686369,118.269324 272.674723,117.534155 C268.618934,116.052559 267.94827,111.404106 267.927182,107.744634 C267.903328,103.711267 268.773809,99.4871995 269.704441,95.5578818 C270.152818,93.665887 270.842842,91.4695901 269.558209,89.6847151 C268.344791,87.9987724 266.845822,88.9492047 265.651072,88.196637 C264.37923,87.3956266 266.211111,81.5084729 264.957937,79.9473896 C262.769982,77.2216344 262.007707,83.8896708 261.972791,85.251525 C261.934764,86.7433557 262.016695,88.4838818 262.729189,89.8361839 C263.288883,90.898512 265.110738,91.8308635 265.423254,92.903426 C265.715719,93.9057125 264.433506,96.5093375 264.235418,97.5849703 C263.930508,99.2422568 263.824377,100.935364 263.736914,102.615166 C263.441338,108.289785 264.343623,114.261884 268.301924,118.665395 C270.037354,120.596621 272.978941,122.789507 275.730738,122.437785 C278.159648,122.127343 280.600658,120.833035 282.866051,119.953561 C284.389564,125.72916 286.678119,131.322587 289.116363,136.776827 C291.235523,141.518072 293.227811,146.373942 295.454139,151.057192 C300.146021,160.928246 307.761861,169.33715 313.712449,178.464166 C319.457344,187.275621 322.678951,197.387184 323.451598,207.789744 C323.634129,210.249405 322.906078,213.615491 323.486859,215.915496 C324.031342,218.071879 324.509104,219.008324 324.152684,221.359843 C323.756508,223.97302 322.989047,226.382874 323.318848,229.041765 C323.611312,231.400788 324.750404,234.915614 323.505527,237.100994 C322.00967,235.528311 320.51727,234.788025 319.610145,232.690319 C318.688846,230.561569 319.051488,228.812173 316.963441,227.876752 C315.179613,227.077447 313.900166,227.251431 312.32618,225.943137 C310.414096,224.353739 309.111141,222.411254 308.1691,220.135811 C306.561234,216.25289 306.328576,212.043491 307.687881,208.055838 C308.777883,204.858619 311.961463,198.873556 316.424836,201.015952 C315.761777,199.672179 315.32066,198.211392 314.055732,197.3384 C312.954322,196.577986 311.307393,196.330314 310.077381,195.465509 C308.702174,194.499043 307.145473,193.467418 305.610551,192.760564 C305.014559,192.486283 304.450717,192.34846 303.83502,192.16083 C303.096598,191.936015 301.696154,192.097377 301.604889,192.083731 C298.968557,191.69039 296.028697,190.438043 294.418758,188.550824 C293.207068,187.130293 292.13608,185.804259 291.210979,184.178699 C290.010006,182.069054 289.547801,182.196642 287.243689,181.695499 C283.895209,180.967835 281.770518,180.471468 279.09201,178.019994 C276.121383,175.301061 273.947602,171.912801 271.77382,168.576736 C270.50025,166.62197 269.380863,166.502569 267.305262,165.722028 C266.098412,165.268645 264.427283,163.237462 263.328639,163.086676 C263.011629,163.043009 261.492609,163.725301 260.978895,163.806835 C260.060707,163.953528 259.263516,163.927259 258.3436,163.83208 C256.232736,163.613405 254.366977,163.061772 252.947865,161.431778 C248.577141,156.412499 247.244455,144.580538 253.228576,140.310416 C254.368705,139.497124 255.956865,139.122546 256.629604,137.771267 C257.401213,136.220759 257.049979,133.299869 256.988098,131.665098 C256.91792,129.799371 256.829074,127.768871 256.546635,125.929754 C256.41665,125.084395 256.319854,124.728921 255.970348,123.882538 C255.276867,122.204101 255.073594,122.448361 253.645494,122.044785 C251.608266,121.469614 250.686967,121.695793 249.437941,119.787423 C248.441625,118.265231 247.975617,116.34765 247.885043,114.547765 C247.800691,112.868645 248.568152,111.316772 247.927219,109.795944 C246.98898,107.570309 245.249402,105.885731 244.486436,103.449949 C243.843428,101.39864 242.183361,96.8201214 243.81992,94.9274443 C244.553156,94.0793557 245.85542,93.9551786 246.582434,92.8201865 C247.84909,90.8439286 248.36073,89.7631786 250.240664,88.2055068 C251.627625,87.0561865 252.959619,85.3436344 254.631439,84.640874 C256.275604,83.9497125 257.827465,85.0621891 259.162225,84.7572047 C260.617289,84.4242464 260.234596,81.0943219 260.638377,79.5946448 C261.182859,77.5726734 262.350645,75.4647333 263.76457,73.8869339 C264.236801,73.3598635 264.825533,73.2585432 265.193016,72.5578297 C265.69152,71.6091031 265.493777,70.2571422 265.882002,69.2197177 C266.34559,67.9799937 267.470854,65.8457854 268.728867,65.1662229 C272.404037,63.1807542 273.507867,68.2969182 276.303568,67.6020042 Z M267.703304,214.422096 C268.221859,215.800667 267.934925,218.016409 268.531955,219.203255 C269.007296,220.14857 270.915923,220.748305 271.851742,221.875792 C273.855437,224.290081 274.61875,228.167885 273.89139,231.148818 C271.439318,230.551471 269.799648,230.169388 267.306437,230.484266 C267.054765,225.081539 267.290189,219.823117 267.703304,214.422096 Z M237.396998,218.494013 C239.065361,220.33006 239.892974,222.493607 239.652019,224.94781 C239.565939,225.821484 239.295254,227.046198 239.034594,227.885417 C238.748006,228.80651 237.323709,230.531003 237.876488,231.024641 C236.320133,230.932872 234.491363,231.111292 233.369902,230.118216 C232.363215,229.226802 231.659017,226.929185 231.250396,225.711635 C232.036179,224.163857 232.822308,222.616078 233.608437,221.068641 C234.120078,221.869651 235.622504,223.961557 236.863232,223.292229 C237.797668,222.788357 237.043344,219.512674 237.396998,218.494013 Z M295.952885,204.183593 C297.862203,205.934354 298.51489,209.090976 298.417402,211.541086 C298.448861,214.918088 297.264137,221.677552 292.815283,221.904073 C289.240021,222.086245 285.42657,217.033192 285.024517,213.910002 C284.583746,210.486263 285.73148,202.298422 290.279896,201.594297 C291.954482,201.335026 294.746035,203.076575 295.952885,204.183593 Z M263.995327,208.550055 C264.071382,210.763751 264.109063,212.893524 263.931026,215.099714 C263.78272,216.94429 264.277421,219.122506 263.85912,220.888618 C261.214146,217.96841 257.729804,214.788589 257.835589,210.496292 C257.935151,206.438704 261.34171,206.783943 263.995327,208.550055 Z M237.337779,159.764393 C238.075164,160.563016 238.813586,161.360956 239.551662,162.159237 C239.614925,165.523958 239.547513,168.850812 240.58566,172.095109 C241.678082,175.508956 243.50858,178.798966 245.320755,181.885654 C248.84347,187.885044 249.683529,193.54363 250.108052,200.404755 C243.482998,197.475677 239.870054,187.467141 237.684173,181.206432 C236.526759,177.892201 235.326478,174.574898 234.234748,171.239857 C233.158228,167.95087 231.255478,163.653456 232.507961,160.188779 C234.914746,161.934763 235.955658,162.834706 237.337779,159.764393 Z M278.621128,183.380316 C281.855872,185.919123 282.100629,189.804092 283.261846,193.354397 C282.592219,193.882149 281.856909,194.34679 281.251928,194.948571 C280.878569,195.32042 279.998063,196.84193 279.711129,196.998175 C278.565124,197.623496 277.563967,196.820779 276.444235,195.812352 C274.240032,193.82586 272.864133,189.60998 272.967499,186.694548 C273.088149,183.28923 275.527776,180.952381 278.621128,183.380316 Z M323.882966,168.461599 C328.087753,170.838703 326.990837,177.415313 326.466405,181.124933 C326.137296,183.450183 326.86673,185.815688 326.815911,188.027677 C326.759216,190.524183 325.446581,190.007005 324.606868,191.55649 C323.87778,189.677117 322.540601,187.414979 322.236382,185.444521 C322.075284,185.029005 321.914187,184.61349 321.753089,184.197974 C322.162402,184.03593 322.379849,183.754143 322.405085,183.352615 C322.5769,182.397748 322.57448,181.424117 322.628409,180.450487 C322.851042,176.427013 323.159409,172.429466 323.882966,168.461599 Z M259.819372,172.902977 C259.354055,174.654078 259.013192,177.949206 256.398639,176.933615 C254.335483,176.131922 253.837325,172.896154 253.832795,171.092516 C253.829374,169.611943 254.076206,166.891646 256.174969,166.802948 C258.751149,166.693782 259.671065,171.192813 259.819372,172.902977 Z M239.91707,124.151804 C238.177837,126.900758 236.970642,130.961416 237.792379,134.216289 C238.654908,137.634229 241.33791,138.461508 243.724298,135.94658 C245.693769,139.006317 241.656302,144.45544 238.04647,141.546148 C237.266218,140.917758 236.742478,139.714536 235.777621,139.32256 C234.986652,139.001541 234.285912,139.437867 233.478349,139.256718 C230.994127,138.699627 230.055888,136.29182 229.079968,134.270872 C229.347888,132.623479 229.631711,130.990414 229.99297,129.359396 C230.185181,128.492203 230.385343,127.626375 230.579968,126.759523 C230.910812,125.286797 230.807793,125.470674 231.889843,124.740622 C234.743623,122.81656 236.706525,122.72138 239.91707,124.151804 Z M241.390457,125.63555 C242.086357,127.162519 242.781912,128.689488 243.477812,130.216456 C242.340449,129.945928 241.101449,133.31406 240.358533,133.970425 C240.011101,131.167571 240.843209,128.361305 241.390457,125.63555 Z M240.233561,109.98934 C242.1211,110.773975 242.496534,114.174517 242.563254,115.819522 C242.044354,117.551178 241.559678,119.766579 239.366192,118.546983 C237.902485,117.732668 237.275034,115.051603 237.225253,113.587064 C237.162335,111.750676 237.861346,109.002746 240.233561,109.98934 Z" id="Accent" fill="#ebc981"></path>
                    <path d="M127.117002,15.8082799 L127.080261,15.7796323 L128.789763,15.9515698 L128.789763,15.9515698 C128.631116,15.9465713 128.469958,15.9655074 128.308628,15.9860411 C130.582107,16.4104249 132.728045,17.323311 134.52439,18.899718 C136.430943,20.5726971 137.593543,23.2319289 138.243465,25.6073273 L138.297269,25.8155221 C138.854363,28.0997903 138.660645,31.6062506 136.377705,28.2048117 L135.629792,27.0775797 C134.419206,25.2589347 133.176516,23.551285 131.091904,22.6434523 C128.846908,21.6660695 126.105482,21.1383169 123.659633,21.3457336 C117.895379,21.8342544 113.224238,23.5045044 109.234133,27.7145852 C104.822269,32.3695201 104.597908,39.801382 105.548937,45.7206034 C106.386922,43.969843 106.954566,41.1976919 109.303965,40.863369 C111.262027,40.5846529 114.34881,43.0518195 113.297873,45.1757935 C108.52959,43.9763247 107.135023,51.0919445 111.258224,51.5204237 C112.506558,51.6500591 114.087459,49.4571737 115.236922,49.967869 C117.386504,50.9223951 114.50576,54.2117232 113.937769,55.2948612 L113.032373,55.8447883 L113.032373,55.8447883 C113.329678,56.5263977 113.629748,57.2069836 113.932929,57.8862049 C114.300412,58.7523742 114.650263,59.6205904 114.97315,60.5041581 L115.389831,61.6485266 C116.035892,63.4376203 116.657334,65.2667947 117.047369,67.1114706 L117.110059,67.4173209 C117.548064,69.6243397 117.727966,72.1436294 116.640822,74.1881997 C115.390414,76.5400591 114.212603,76.2507674 113.251894,74.0135331 L112.172136,74.6868684 C110.006102,76.0327753 107.786476,77.3337105 105.25267,77.8626815 L105.470438,78.2195472 C108.54033,83.1985774 112.505835,87.4444604 118.399414,89.0212206 C123.5134,90.3895565 129.950738,90.3394081 134.830338,88.0759055 C139.843216,85.7506043 142.624263,80.3468779 142.094384,74.9395104 L142.077312,74.7756529 C141.945598,73.5828488 141.428263,70.4004803 141.866323,69.8171373 C141.69159,69.7546941 141.551121,69.6383108 141.476098,69.4465973 C141.19383,69.3585771 140.939355,69.2391676 140.726996,69.0795409 C138.368661,67.3071085 140.999702,66.2628004 142.564918,66.0215854 L142.615572,66.0140044 C149.07708,65.0762809 155.520055,64.512451 162.022543,64.1015744 L160.671888,64.1304359 L160.671888,64.1304359 L160.87127,64.0531929 C161.358783,63.8704913 161.847674,63.7502809 162.346126,64.0808385 L163.323881,64.0213716 L163.323881,64.0213716 C163.649533,64.0019263 164.842209,63.7627831 165.239076,63.8862779 C166.143435,64.1680643 165.778719,64.494882 166.320781,64.7855383 C167.324703,65.3238664 168.470363,65.7202779 169.744279,66.0542596 C173.216097,66.9640956 176.710909,68.4626576 180.195341,69.6900846 L181.194165,70.0377181 C187.655726,72.3044349 195.270622,75.713791 201.671346,75.0959888 L202.174317,75.0456699 C203.576574,74.901668 204.803034,74.7568898 206.318978,74.9018768 C208.303314,75.0918951 209.46142,76.0962284 210.985971,76.3882492 C213.028385,76.7792023 215.949922,76.4854758 218.099849,76.5605279 C220.149869,76.6321685 222.201271,76.7259836 224.252328,76.7259836 C222.511252,73.271268 221.428209,70.0205727 220.443607,66.3406377 L220.34208,65.9583977 C219.789992,63.8651268 218.959267,61.9639211 219.319144,59.7594367 C219.48923,58.7189419 219.910642,57.741218 220.370082,56.8013612 C221.063562,55.3825357 221.260613,55.6793326 221.506754,54.1080148 C221.845543,51.9454914 221.35983,49.6652727 221.626021,47.4962674 C221.899127,45.2702909 223.603789,43.2861867 223.79358,41.158119 C223.894871,40.025856 223.2529,39.1016919 223.445111,37.8803898 C223.616926,36.7880409 224.272379,35.6428143 224.861111,34.7230852 C226.23217,32.580007 227.901916,31.3648456 230.218818,30.4918534 L230.440227,30.4096675 C232.266795,29.7423644 234.53198,29.1909372 236.340183,30.282731 C238.260219,31.4419445 238.121592,33.7750409 239.041508,35.4773586 C241.019621,39.1378534 245.583594,42.4091008 249.221773,44.2785799 C252.564031,45.9959081 256.164529,47.0807518 259.748088,48.2007336 C261.929129,48.882343 264.171705,49.3684758 266.315064,50.1473117 L266.497298,50.2154018 C268.05008,50.8095479 270.434396,52.0365249 271.945185,51.2420487 C273.314515,50.5218898 274.911664,48.3242284 276.26682,47.3038612 L276.435666,47.1784116 C278.000812,46.0311511 280.037277,44.9816636 281.963662,45.9849914 C283.960097,47.0244628 283.796234,50.8562128 285.349133,51.5767128 C285.890158,51.8277961 287.496986,51.0922857 288.234717,51.2082753 C289.42601,51.3952232 290.246363,52.1228872 290.960586,53.0187362 C293.626934,56.3650237 294.453582,61.6719685 294.570619,65.7980847 L294.566166,64.9513352 C294.868357,65.512668 294.877476,66.0743345 294.585832,66.637324 C294.594774,68.5230327 294.41102,70.6576796 293.302724,72.1781685 C291.814818,74.2195852 288.998721,74.2700747 287.088711,75.7066398 C285.561049,76.855619 284.478652,78.733968 282.928174,79.9583404 C282.591678,80.2241801 282.327991,80.3244362 282.110282,80.3941942 L282.133817,80.3954164 L282.133817,80.3954164 C282.491965,83.4520831 282.5656,86.6264451 283.203768,89.6387628 C283.126294,89.5354887 283.032107,89.3546998 282.92762,89.1135313 C283.8414,91.9154899 284.959974,94.6449644 286.04123,97.4311477 C286.836347,99.4804107 287.510814,101.530015 287.873803,103.701749 C288.111646,105.126715 287.837158,106.37258 287.952277,107.743645 C288.033863,108.719663 288.454584,109.562635 288.361935,110.563557 C288.165922,112.683096 286.999519,114.555304 286.25764,116.419666 C285.412051,118.545004 286.573613,122.225627 287.425426,124.423629 C289.466457,129.689557 292.33683,135.009726 294.887082,140.06926 C297.392047,145.039413 299.255387,150.332291 302.173812,155.106968 C305.008232,159.743822 308.34323,164.284132 311.568295,168.669562 C313.242558,170.94646 315.012285,173.119644 316.562676,175.479514 L316.891431,175.988163 C317.154688,176.402609 318.554255,179.056157 319.517939,180.338751 C319.456889,179.454137 319.936649,178.04319 319.996191,177.817114 L320.302138,181.026887 C319.530529,172.929791 320.310781,164.508606 320.655793,156.416968 C321.080272,146.451377 319.822508,137.40911 317.030992,127.911598 L316.892469,127.444135 C316.273574,125.372072 315.716262,123.255864 315.261806,121.138342 L315.140445,120.560835 C314.807879,118.943463 313.868949,117.614359 316.173752,118.321554 C319.94709,119.478874 323.273283,126.442491 325.223308,129.590222 L325.289252,129.696038 C329.634394,136.627098 333.263931,145.870103 333.751027,153.999609 C334.229135,161.97901 333.816711,169.613853 332.806221,177.475559 C332.307371,181.354046 331.501883,185.677728 330.270488,189.387007 C329.63716,191.295036 328.876613,193.271293 328.033097,195.099494 C327.677023,195.871166 326.895388,196.743135 326.760219,197.590882 C326.546574,198.93602 327.54531,200.750916 327.795254,202.079338 C328.611804,206.425877 328.799521,210.930366 328.52123,215.341382 C328.37844,217.608651 328.068331,219.646265 327.354183,221.770391 L327.258722,222.047968 C326.461393,224.315633 326.598402,226.154927 326.897499,228.295958 L327.140146,229.969715 L327.180752,230.267808 C327.606577,233.526832 327.90838,240.25882 324.714347,241.981119 L324.015336,241.910161 L324.015336,241.910161 C323.426603,241.240491 322.9039,241.280064 322.447572,242.029562 C321.595414,242.303843 320.762961,243.010356 319.865515,243.314317 C317.782654,244.020148 315.535238,244.063132 313.36284,244.373234 C309.111037,244.980814 304.873408,246.052353 300.695931,246.181989 C295.749611,246.335504 290.589646,246.144122 285.75326,245.288528 C284.753486,245.111473 283.58501,244.643762 282.585236,244.554041 C281.228351,244.432252 280.275939,245.322642 278.87515,245.113179 C276.704135,244.788749 275.332385,242.521494 275.190301,240.663614 C274.738121,234.743369 278.066551,232.02853 283.505844,230.977119 L283.219769,230.576412 C279.774625,225.789863 275.919351,221.765767 275.009498,215.56108 C274.08889,209.286726 276.085326,202.025096 279.711406,196.998312 C283.191945,192.172804 289.131125,188.946588 295.255947,190.17096 L295.438979,190.209045 C298.628697,190.895805 311.457677,194.735096 308.917097,199.078619 C308.342193,197.051189 304.806687,197.443507 303.098568,197.150804 C300.264494,196.665012 297.431111,195.932572 294.555898,196.083359 C288.900887,196.380155 283.43532,199.681083 280.697006,204.677846 C277.571614,210.381166 278.952239,216.072784 282.66794,220.958598 L283.827961,222.460724 C286.983669,226.53393 290.306101,230.653338 294.511994,233.575968 L294.416516,233.729475 C293.629961,235.025423 293.868897,235.428883 292.140816,235.184471 C290.90873,235.010145 289.756156,234.062101 288.510933,233.826028 C285.928877,233.336825 281.864791,235.424637 280.269371,237.51245 L280.173778,237.64003 C279.331186,238.788999 279.422544,239.382318 281.09975,240.115392 C282.382308,240.675895 284.401906,240.386262 285.779533,240.50771 C289.206488,240.809624 292.699472,240.910603 296.13749,240.898663 C302.088769,240.877171 307.623476,239.934926 313.513221,239.324958 C316.123625,239.054429 318.853642,239.366236 321.407697,238.418192 C324.867148,237.13446 324.019484,233.363775 323.571107,230.309155 C323.207648,227.833646 323.444263,225.812594 323.806266,223.518411 L324.060969,221.940507 C324.269773,220.639036 324.659726,219.136629 324.38351,217.826629 C324.055783,216.270322 323.467742,215.581549 323.54276,213.845799 C323.809642,207.668671 323.024205,201.163361 321.365176,195.201497 C317.79868,182.384756 309.142103,172.241768 301.849925,161.36388 L301.624836,161.027213 C299.552346,157.918692 297.373379,154.973239 295.723338,151.606812 C294.160414,148.417439 293.083894,145.044189 291.531687,141.845947 L291.055577,140.860964 C287.811433,134.120688 284.772508,127.182896 282.866293,119.953254 C280.600554,120.83307 278.159545,122.127377 275.730635,122.43782 C272.978838,122.789541 270.03725,120.596655 268.30182,118.665429 C264.343865,114.261918 263.441234,108.28982 263.737156,102.6152 C263.824619,100.935398 263.930404,99.2422909 264.235314,97.5850044 C264.433402,96.5093716 265.715615,93.9057466 265.423496,92.9034602 C265.110635,91.8308977 263.288779,90.8985461 262.729431,89.836218 C262.016592,88.4839159 261.93466,86.7433898 261.972687,85.2515591 L261.977842,85.1150624 C262.054948,83.4980769 262.835517,77.3034309 264.957834,79.9470826 C266.211008,81.508507 264.379127,87.3953195 265.650969,88.1966711 C266.795592,88.9175122 268.371998,88.0366737 269.558451,89.6847492 C270.840318,91.4658716 270.153752,93.6611451 269.704338,95.5579159 L269.531037,96.2969266 C268.669908,100.00906 267.904715,103.967864 267.927078,107.744668 L267.931289,108.106477 C267.995112,111.712104 268.745064,116.098926 272.674619,117.534189 C274.726713,118.283687 276.284451,117.768215 277.814879,116.372247 C278.165767,115.973788 278.52357,115.581812 278.888287,115.195976 C279.223273,114.627968 279.736988,114.557351 280.429777,114.984465 C280.942455,114.582596 281.70231,111.805668 281.958822,111.185124 C285.073262,103.653648 280.243303,95.0174555 278.382002,87.6029102 L278.326519,87.3786034 C277.214392,82.8130487 276.244695,78.233507 278.495914,73.8272674 C278.860285,73.1139315 279.864207,72.4940695 279.261992,71.470632 C279.103314,71.201468 277.587752,71.075244 277.228912,70.7624133 C276.059744,69.744093 276.303465,67.8456164 276.303465,66.4861503 C273.599721,67.308994 272.820506,65.2331216 273.172086,62.688856 L272.990436,62.7182614 C271.070958,63.0386276 269.731837,63.5432402 269.007746,61.3102857 C268.345724,59.2681867 269.345498,57.1858326 270.008902,55.2829211 L268.321888,55.1012344 C259.477453,54.1259085 250.152849,52.6501077 243.162289,46.6771763 C241.328679,45.1102935 239.803783,43.1381294 238.532978,41.095007 C238.303431,40.7255461 237.222072,38.1246503 236.863578,37.9888742 C235.798467,37.5852987 234.904824,39.6417258 233.958289,40.1510565 C233.116847,40.6034159 231.920715,40.8527935 230.985933,41.1284393 C230.106119,41.3880513 227.004816,41.4399055 226.454803,41.8905591 C225.292656,42.8430767 225.190126,47.6441741 225.179783,50.0216504 L225.177429,51.046231 C225.140094,56.2548456 226.31825,61.4453794 228.497217,66.1876477 L228.788293,66.8162833 C230.841213,71.2140246 233.878772,76.9308233 237.793865,79.718856 C238.830974,80.4577779 239.764719,80.8408846 241.079082,80.7798195 C242.018012,80.736494 242.94899,80.0876346 243.926638,80.4250279 C246.400836,81.279257 245.515836,82.9764576 243.613777,83.7788326 C238.17725,86.0733794 233.595301,81.0291971 230.451476,77.5051607 C229.530869,81.686244 233.799611,86.633882 236.058435,90.0453404 C237.292003,91.9088738 238.513633,93.7739112 239.699814,95.6658025 L240.644291,97.1878993 C241.648373,98.8288777 242.856511,101.063914 239.767138,99.9563091 C238.092553,108.628918 233.496775,116.213614 231.149797,124.641622 L230.905894,125.525579 C228.600276,133.961814 226.640099,143.477052 226.640099,152.181301 C228.474746,150.921109 229.399847,145.177918 231.867476,149.573583 C232.134359,150.04914 232.050699,150.836163 232.402625,151.251679 C232.889375,151.82651 233.474996,151.666853 234.220678,152.07657 C235.402982,152.72577 236.165603,154.020077 235.108789,155.142447 L235.260257,155.109716 C236.574221,154.843719 237.906718,155.048114 238.189349,156.577989 C238.353904,157.469744 237.030553,161.600679 236.043224,161.938072 C233.033187,162.966286 229.695769,157.036489 228.880601,155.150293 L228.760202,155.268542 C226.908326,157.071553 224.796928,158.380988 223.100791,155.432762 C221.809244,153.188023 222.558728,149.791916 222.740914,147.348288 C223.108051,142.425554 223.587195,137.623926 224.306949,132.748611 C225.656574,123.606585 229.082146,115.476057 233.289699,107.247278 C234.44815,104.982411 235.731746,102.663984 236.766435,100.34658 C238.295729,96.9201044 235.981305,97.6437998 233.641741,98.1518908 L233.498504,98.1826919 C228.822523,99.1778143 223.92633,99.9498273 219.201605,100.302231 L218.66307,100.340739 C216.28819,100.504783 213.407744,100.645862 211.207221,101.299059 L210.959922,101.370643 C209.594149,101.756322 209.783889,101.552807 209.191906,103.12247 L209.035389,103.530616 C208.76472,104.221889 208.450031,104.929442 207.992527,105.514257 C205.300191,108.957101 198.326668,108.380905 194.475535,108.124364 C194.708885,106.672447 194.939469,105.219848 195.181461,103.769296 C192.216711,104.456705 188.695379,104.935333 185.642129,104.900195 C183.99831,104.881773 182.25009,104.634442 180.61042,104.499689 C179.401496,104.400416 177.109484,103.554715 175.971775,103.88358 C174.652572,104.265322 172.657519,108.972111 171.903195,110.489869 C170.486849,113.340142 167.955957,116.506658 167.062314,119.507718 C166.269963,122.168314 167.886816,126.758773 168.394654,129.407088 L168.774969,131.404445 C169.346475,134.399393 169.944862,137.384812 170.870223,140.298072 L171.436241,142.029816 C172.259957,144.517441 173.351232,147.382257 175.685533,148.526606 L176.052981,148.705387 C178.533626,149.901699 180.417344,150.57237 183.127822,150.361892 L183.327646,150.344913 C188.406781,149.876417 193.802864,150.617016 198.834889,151.581238 L199.193691,151.650478 C204.480183,152.677668 209.321064,153.140262 214.341019,154.970851 C225.726752,159.123619 232.977183,171.915905 228.684242,183.634947 C226.21523,190.375307 222.147687,195.384692 216.180851,199.554517 C213.140392,201.679515 209.548191,203.403325 206.214922,205.040825 C204.81203,205.730053 203.430924,206.55401 202.009029,207.201052 L201.620181,207.372898 C200.480398,207.861077 198.521299,208.984812 197.28299,209.107965 C198.657506,209.753072 199.873689,209.148903 201.303863,208.94865 C203.327263,208.664476 205.393531,208.603752 207.424191,208.35608 C210.058449,208.034266 212.660057,207.778312 215.284032,207.477858 L216.861541,207.291364 C219.560445,206.960793 222.605744,206.843439 225.288054,207.224158 C226.58375,207.408036 228.533861,207.771015 229.687818,208.387124 C230.595289,208.871551 231.427396,209.98778 232.403316,210.540778 C233.476724,206.190827 232.974763,200.828697 233.02489,196.358663 C233.066029,192.709767 233.230929,189.141382 233.579053,185.509543 C233.961703,181.520056 231.539563,176.992867 230.571929,173.063359 L230.520617,172.849622 C229.650482,169.126015 227.332197,164.406945 228.185392,160.52027 C229.250804,155.670067 232.021855,164.247642 232.452857,165.640787 L232.465197,165.680783 C233.576546,169.28985 234.85173,172.820086 236.091305,176.380278 L236.759401,178.307598 C238.252043,182.598267 239.797334,186.764196 241.964428,190.80208 L242.417219,191.6446 C244.254244,195.047753 246.433598,198.78009 250.108156,200.404994 L250.051705,199.507426 C249.732454,194.541189 249.288455,189.906257 247.179013,185.289846 C245.058816,180.64958 241.825455,176.52308 240.411875,171.550879 C239.736756,169.174996 239.615543,166.747385 239.576177,164.295342 L239.569131,163.706846 C239.562919,162.037775 239.733003,160.079812 241.494271,161.8272 C242.974226,163.29515 243.261506,167.977718 243.909353,169.954317 C244.182502,170.786542 244.547494,171.559216 244.865374,172.359185 L244.998491,172.704055 L244.998491,172.704055 L245.179305,173.113168 L245.734792,174.283453 C245.968115,174.781278 246.171151,175.237688 246.19604,175.395037 L246.198553,175.419647 C246.198818,175.420826 246.199521,175.422418 246.200225,175.42401 C248.724272,177.441001 250.697545,181.56409 251.332602,184.661353 C252.477951,187.26201 253.780215,189.823674 254.467127,192.589343 C255.167902,195.412211 254.899555,198.047635 254.98581,200.893137 L254.996053,201.188265 C255.177282,205.808905 254.834555,210.403858 254.851827,215.027448 L254.8595,215.894721 C254.918961,220.085015 254.756135,224.170577 254.798656,228.316523 C254.82225,230.611411 254.71377,232.898724 254.692302,235.190804 L254.689812,236.189464 C254.698925,236.396076 254.785709,238.532322 254.611976,238.646077 C253.791623,239.183723 252.895215,238.420239 252.643888,237.68507 L250.212213,240.399908 C251.48682,240.084007 253.054238,239.42389 254.364453,239.365554 C254.866068,239.183382 255.365609,239.178265 255.863422,239.350202 C256.357431,239.644952 256.723531,240.055692 256.961721,240.583103 C260.394898,241.304627 262.455289,238.289239 263.072023,235.593163 C264.409549,229.743536 263.927638,223.968278 263.830496,218.062702 C263.620308,205.23289 265.685885,192.479835 265.490562,179.648999 L265.465204,178.162338 C265.433411,176.183626 265.432415,174.216661 265.734974,172.234195 C266.429734,167.676469 267.452475,171.761204 267.634205,173.95158 L267.639453,174.017364 C268.125829,180.369757 268.963038,186.919153 268.56692,193.319274 L268.531021,193.852265 C268.195184,198.467268 268.145354,203.115451 267.998139,207.753484 L267.964927,208.7482 C267.930496,209.726944 267.890504,210.705097 267.841344,211.682252 C267.523642,217.992426 267.012002,224.168872 267.306541,230.484163 L267.569959,230.453528 C269.526739,230.243332 274.573703,230.055192 275.122197,232.324986 C275.623812,234.4012 273.605252,233.632939 272.556734,233.545265 C270.856566,233.403007 269.195808,233.796689 267.337308,233.467825 L267.403139,234.733465 C267.526024,237.306922 267.49801,240.278806 265.335687,241.891057 C264.191355,242.744426 262.356186,243.521278 260.938188,244.065943 L260.578467,244.202661 C259.15417,244.738942 256.741853,245.926812 255.258096,245.861653 C254.208195,245.815598 253.803722,245.257825 252.65184,245.346864 C250.942683,245.47957 249.463074,246.607739 247.651244,245.675728 C244.214955,243.908252 245.90406,238.767525 248.073693,236.707346 L248.27408,236.518306 C248.782686,236.043599 249.350171,235.564407 250.012396,235.335939 C250.369162,235.212786 251.862254,235.361525 252.034414,235.176965 C252.669816,234.496379 251.876428,230.515208 251.79173,229.75957 L251.522331,227.372605 C251.164072,224.17972 250.824176,220.952208 250.677875,217.76727 L250.48918,213.736723 C250.376685,211.334104 250.268009,208.930411 250.184211,206.529244 C250.166778,206.027842 250.298647,205.20081 250.322302,204.472529 C249.944103,205.599393 247.084228,204.024019 246.279577,203.674361 L246.435563,205.162214 C247.266175,213.216424 247.841285,221.568883 244.964704,229.123633 L244.717935,229.761377 C244.047909,231.513639 243.251593,233.800368 241.588303,234.728359 C239.946978,235.644546 236.129011,235.537574 234.0836,235.636872 L233.952758,235.643653 C231.792113,235.763054 229.677101,235.265322 228.4865,233.263137 C227.54999,231.687726 228.111412,229.797778 230.034558,229.11071 C231.186096,228.699629 231.410457,228.964017 232.419219,229.452879 C232.638049,229.803577 232.791541,230.180543 232.880387,230.583778 L233.655799,230.583778 C234.706736,231.046372 238.907029,231.56389 240.062023,230.82565 C241.368715,229.991427 241.677213,227.769051 242.222113,226.386348 L242.262424,226.286705 C243.322349,223.735275 243.60306,221.664861 243.987828,218.937741 C244.590043,214.669325 243.980222,209.719981 243.991631,205.272804 L243.997335,203.394114 L243.997335,203.394114 L244.003058,201.288643 C244.016147,199.622352 244.125821,199.578625 243.077592,198.273515 C241.429279,196.221182 239.550037,194.123817 237.785568,192.156429 C238.741437,197.904395 238.350101,203.956322 237.970519,209.682796 C237.757566,212.900142 237.316449,216.176507 237.114213,219.35121 C237.053369,220.305054 237.747887,222.935288 236.625388,223.356945 C235.486297,223.784741 234.068568,221.789038 233.608437,221.068538 L233.400909,221.474532 C230.931378,226.273133 227.958057,230.853096 222.918951,233.34126 C220.254963,234.656718 217.481041,235.249971 214.573678,235.765783 C211.880304,236.24407 209.391242,237.116038 206.735896,237.52746 C201.239908,238.378619 196.177777,238.499043 190.647219,238.313119 C185.429521,238.13777 180.43342,239.088543 175.232316,237.891463 C173.202347,237.424434 171.151291,236.566452 169.763638,235.033002 C169.006549,234.196171 168.671562,232.879007 167.907904,232.107676 C167.735744,231.109484 167.140789,230.80177 166.122347,231.183853 C165.482797,231.212168 164.845666,231.191359 164.210955,231.121083 C158.994295,230.850895 153.196853,231.152127 148.141982,229.681788 L147.907753,229.612056 C146.05475,229.046745 144.120161,228.108221 145.038605,225.834687 C145.862336,223.795453 148.113127,224.373946 149.989222,224.564819 L150.076883,224.573471 C151.160305,224.677044 152.240387,224.797435 153.319049,224.927688 C153.24107,224.89643 153.16317,224.858883 153.085295,224.815684 L155.033678,224.819778 C154.796535,224.937719 154.559438,225.016914 154.322454,225.052498 C158.38153,225.562519 162.428926,226.182743 166.567267,226.540859 C166.387847,223.664658 166.542377,220.730463 167.684926,218.039846 C163.815125,217.560536 159.80324,216.837648 156.121156,215.618392 C154.984138,215.241767 153.852306,214.850473 152.724277,214.447921 L152.444243,214.345647 C150.902296,213.769822 151.193893,213.674824 150.174717,214.770645 C148.821635,216.225291 147.99333,219.260465 147.012916,221.018049 C145.909777,222.996012 144.851234,224.95146 143.921638,227.016075 C143.041824,228.970158 142.385679,231.587429 141.045043,233.271325 C138.126596,236.937299 131.425514,237.289526 127.402263,235.885949 L126.392302,235.524808 C125.097763,235.058066 124.440448,234.743265 123.489325,233.386626 L123.220717,232.999128 C122.114592,231.425451 121.694503,231.263599 119.627552,231.034775 L119.386396,231.008504 C115.049551,230.542158 110.956426,229.46789 106.893722,227.984588 C102.601472,226.417705 98.1941033,225.196062 93.9142986,223.50432 L91.3980051,222.506127 C88.265432,221.265395 85.1630242,220.066952 81.8903982,219.090916 C81.3984627,222.176239 83.4367283,225.655585 83.4367283,228.836429 L84.6305548,228.718892 C86.4051714,228.543486 88.1167512,228.365905 89.8937823,228.1021 L90.4887264,228.010856 C91.3412303,227.875762 96.7124197,226.686528 97.2365057,227.388265 C99.3991587,230.284675 89.6789282,231.662435 87.9768606,232.064739 L87.9277576,232.076632 C82.9492869,233.316356 77.8726365,234.468405 72.8627068,235.426684 L71.3321381,235.719187 C66.749998,236.591561 62.2449193,237.39629 57.572949,237.554411 C48.7889783,237.851549 36.6731209,237.350747 37.0924588,225.962275 C37.2570135,221.499747 39.1200076,216.65684 42.6848982,213.746525 C44.9029295,211.935723 47.6689002,210.94026 50.3805955,210.120827 C51.1259094,209.89546 54.2377588,209.446169 55.8485789,209.070449 C55.8074065,209.053301 55.7650341,209.034359 55.7213977,209.013502 L56.8207336,208.720799 C55.3830592,207.704072 52.9598209,207.41388 51.206031,206.663486 L51.0270604,206.584168 C49.3448689,205.811132 47.5696834,205.523205 45.8477361,204.744028 C42.4069529,203.187379 39.0837088,201.284468 35.9022029,199.359723 C33.3720018,197.828661 30.8137986,196.138283 28.484451,194.31827 L27.9027738,193.863176 C26.2633841,192.576852 24.7040054,191.308035 23.3801443,189.829473 C22.6057693,188.964668 21.2350564,188.198796 20.614865,187.454075 C18.4369354,184.83851 20.7337869,179.633989 21.6613084,176.588921 C23.0161189,172.137991 24.8241463,167.401864 27.4905545,163.546234 C29.9426268,160.000364 32.6764471,157.611661 37.0748279,156.780971 C41.1344197,156.014416 45.2164822,155.77152 49.3683768,155.556257 C48.6707479,152.93728 47.6886053,151.088952 47.9378572,148.216504 C48.1658118,145.589227 49.4762457,142.978309 50.5474486,140.572566 L51.6534536,138.063167 C53.3297697,134.271837 55.0391756,130.567609 57.3444393,127.048405 C58.8648416,124.72759 60.572615,122.524471 62.2323357,120.300541 L62.2840932,120.2356 C62.6659857,119.776867 64.1601714,118.27808 64.099824,117.839856 C64.0365604,117.380674 62.3661229,115.982658 62.1103025,115.662322 L61.9740607,115.489817 C60.3314498,113.386807 59.2588049,111.131896 61.2221912,108.890236 L61.308202,108.794278 C62.4333599,107.566101 65.4044448,105.304164 66.8540408,106.790142 C68.4632889,103.581325 71.2780037,101.393557 73.4694158,98.6637076 C76.2015076,95.2597544 78.8101834,91.8039471 81.3676951,88.238632 C83.9141443,84.6886685 85.99424,80.8749992 89.3696854,78.0141503 C93.1312811,74.8261424 96.6723182,75.1017883 101.292295,76.4646659 L101.321539,76.2805872 C101.584536,74.7219934 101.985536,74.9187356 103.646533,74.3529732 C104.951217,73.9084602 106.219256,73.3810487 107.50216,72.8792232 C108.751992,72.3898211 110.015767,72.0944859 111.291356,71.7254559 L112.052609,71.502093 C113.540733,71.0768189 113.799241,71.0576506 114.077088,68.867007 C114.43366,66.0586945 113.252325,63.0931834 112.447887,60.4330095 L112.391094,60.2435227 C111.994226,58.9072544 111.718355,57.2438273 110.825404,56.3449081 C110.017496,55.5319576 108.585248,55.1618143 107.701631,54.2628951 C100.088556,46.5185435 99.9685975,29.9832049 108.078101,22.7857102 C109.654162,21.3866711 110.954006,19.5045695 112.915871,18.5599367 C115.069947,17.5225122 117.911281,16.6836346 120.283842,16.1947727 C122.508041,15.7367435 124.855169,15.5531568 127.117002,15.8082799 Z M179.878566,215.934976 C177.53781,216.165932 174.935703,216.148533 172.731846,216.980588 L172.571812,217.03975 C171.209113,217.532639 171.172517,217.272354 170.589869,218.974244 C170.232066,220.018833 169.974863,221.21182 169.967949,222.310309 C169.953429,224.530145 170.670763,227.124559 171.597939,229.122991 C172.480865,231.025562 173.875777,233.065955 175.794429,234.087687 C178.004855,235.265663 181.11964,234.564609 183.711722,234.430879 C184.841826,234.287939 185.916271,234.24359 187.057092,234.24359 C184.486789,230.13176 182.546012,225.533455 182.524232,220.633918 C182.521467,219.993247 183.30241,216.310236 183.04417,216.004228 C182.540135,215.407905 180.451051,215.878687 179.878566,215.934976 Z M216.065387,212.829525 C213.23795,213.05973 210.489112,213.654868 207.698295,213.993641 L207.099576,214.062085 C204.188756,214.372869 200.281965,215.331148 197.454113,214.613036 C197.380478,215.760991 198.353287,217.303994 198.692076,218.47276 C199.072843,219.786269 199.418561,221.109803 199.73663,222.439281 L199.893394,223.104497 C200.279545,224.767241 202.669736,230.744799 200.495955,231.939833 C197.94432,233.342624 196.726408,227.335728 196.408707,225.87153 L196.308418,225.406042 C195.595886,222.070138 195.034883,218.736041 195.79301,215.38232 C192.53614,214.803054 188.608262,215.663424 185.24941,215.89165 C186.500855,220.24126 187.308072,224.79658 188.407754,229.198726 C188.601693,231.089015 189.342881,232.457351 188.083484,234.157622 L190.024506,234.017608 C191.799172,233.892419 193.564976,233.790799 195.353275,233.83558 C197.260794,233.883445 200.089576,234.304091 201.92314,233.560056 L202.065793,233.498869 C202.810092,233.161817 203.063146,233.742106 203.44584,233.098023 C203.809174,232.486007 202.955633,230.454825 202.852959,229.950952 C202.360678,227.532911 202.12076,225.052439 201.67342,222.619387 L201.636265,222.423343 C201.301238,220.701298 200.506952,217.598474 201.598402,216.077916 C202.953947,214.18865 203.693075,215.996875 204.155675,217.521434 L204.435933,218.482653 C205.86749,223.274046 205.784867,227.82459 205.784867,232.747666 C207.941017,232.747666 210.773709,231.818385 212.853113,231.257882 L213.936914,230.96648 C216.48271,230.282429 219.13173,229.563411 221.563449,228.679843 C224.18457,227.727705 226.49283,226.338218 228.150131,224.101666 L228.328067,223.858763 C229.632582,222.058164 232.107127,218.217086 231.455398,216.451471 C230.618451,214.183533 226.626963,212.624155 224.495357,212.374778 C221.729732,212.05103 218.895312,212.599252 216.065387,212.829525 Z M271.569579,233.902206 L269.573489,233.863656 L269.573489,233.863656 L269.74794,233.835256 C270.358612,233.729063 270.969859,233.568921 271.569579,233.902206 Z M143.899168,204.885262 C143.142424,205.378218 142.522578,207.596348 142.036174,208.402476 C141.263527,209.683137 140.385096,210.901028 139.54642,212.14007 C135.622689,217.936478 131.668883,223.581077 127.456144,229.174504 C127.365916,230.890809 131.643301,231.942562 132.942799,232.045588 C136.40492,232.319592 138.670746,230.84716 139.892814,227.934901 L139.946053,227.805486 C142.41141,221.692933 146.328447,216.292722 148.071512,209.90684 L148.390765,208.697986 C148.750311,207.318912 148.839621,206.555049 147.416124,205.731016 L147.328888,205.681497 C146.597726,205.274851 144.693939,204.367403 143.899168,204.885262 Z M62.0797468,211.940172 L61.9194744,211.97939 C57.7485662,213.025343 51.1770955,213.767676 48.0664588,216.588952 C44.9848611,219.38396 43.8634002,228.811866 48.1300682,231.089697 C49.2625916,231.586747 50.8189471,231.319971 52.0499959,231.415491 C53.9738338,231.564572 55.9173768,231.907765 57.8540057,231.8467 C60.809076,231.753908 63.9069217,231.385129 66.8644119,231.051489 C65.2206379,228.12605 64.2066836,225.352184 63.9610166,222.028694 L63.8814214,220.823611 C63.735039,218.409185 63.5494301,212.912134 65.5140955,213.190799 C66.6293338,213.34909 66.3925271,219.894997 66.6089373,221.100947 C66.9235271,222.850343 67.3293826,224.641359 67.8233924,226.353911 C68.1818865,227.596023 69.4015271,229.456291 69.0890115,230.799723 L73.5627557,230.08434 L73.5627557,230.08434 C72.4032674,227.803098 71.5562947,225.758611 71.1220916,223.214004 C70.9122498,221.985879 71.0460369,220.457546 70.6391443,219.291168 C70.3826326,218.555999 69.7977029,217.864497 69.719574,217.248046 C69.6293455,216.536757 70.4189314,214.789067 70.1268123,214.157265 C69.8480768,213.553788 67.9548248,212.994415 67.2051237,212.64896 L66.8583667,212.482841 C65.1433361,211.675659 64.0332894,211.474519 62.0797468,211.940172 L62.0797468,211.940172 Z M72.7451678,215.335241 C73.3749006,217.767543 73.9620704,220.193489 74.4678666,222.649886 L74.6333982,223.469864 C74.9994979,225.322286 76.2298553,227.939215 75.5878846,229.751723 L80.5774178,229.0899 L80.5774178,229.0899 C79.3436033,226.319114 78.6943729,223.362403 78.3279275,220.369189 L78.303321,220.155526 C78.1238781,218.494657 78.3352426,217.974168 76.9924764,216.995598 C75.9093885,216.206187 74.00249,215.826833 72.7451678,215.335241 Z M40.9359861,224.003416 C40.41916,226.219158 40.8516346,227.707577 42.6489451,229.140049 C41.904992,225.973533 42.7962146,222.81964 43.5519217,219.748645 C42.5120467,219.293557 41.121283,223.208205 40.9359861,224.003416 Z M63.7406385,160.460911 C55.4129959,160.863122 46.0838514,160.288291 38.0721814,162.58045 L36.944485,162.904436 C33.7865705,163.825609 31.6267856,164.665538 29.7279451,167.840577 C27.2800213,171.933986 25.1885174,176.187392 23.4078006,180.608984 C23.1478318,181.254773 22.5601365,182.186101 22.581388,182.89159 C22.6254744,184.238775 23.1139529,183.928333 24.4231307,184.696593 C25.8377479,185.526601 27.2243631,186.51183 28.5757166,187.44657 C30.8929646,189.049273 33.7699061,190.722593 36.1739256,191.972551 C38.7048614,193.288351 41.2522073,194.485309 43.8205951,195.778483 L44.9226346,196.339218 C46.7870115,197.298861 48.7167264,198.083497 50.5454959,199.137978 C52.5308689,200.283205 54.75374,200.60934 56.8939881,201.503484 C63.232981,204.15217 69.3768195,206.608586 75.5905319,209.581801 L76.4383143,209.99051 C82.468725,212.919622 88.5649671,215.417696 94.7279298,217.992203 L95.7015838,218.399413 C104.095601,221.914239 112.40665,225.165359 121.16089,227.596023 C121.801824,227.774101 123.149375,228.401809 123.782357,228.373153 C125.101082,228.313321 125.42601,227.385179 126.193944,226.320221 L126.255517,226.235874 C127.853357,224.074374 129.392428,221.871596 130.920781,219.662335 C134.235728,214.869577 137.477387,210.023601 141.046426,205.40858 C130.932881,202.623807 121.555338,197.485809 112.66489,192.212718 L112.616908,192.353404 C112.259039,193.456771 111.933258,195.602953 110.771474,195.939054 C109.271123,196.373674 108.181121,194.322364 107.508728,193.379096 L107.46075,193.501584 C106.817935,195.200106 105.733031,200.214858 103.746441,200.102398 C100.932072,199.942741 101.428847,195.571299 101.078304,193.836913 L100.706903,194.320828 C99.2414961,196.206658 97.5626416,197.965176 95.6203436,195.082437 C94.1590564,192.91309 94.3211912,189.105903 94.7598885,186.687179 C94.9949666,184.454721 95.2967654,182.314372 95.8056404,180.123874 C96.1185018,178.778054 97.4397791,176.014432 97.0052303,174.746734 C96.6858006,173.815064 94.787199,173.004843 94.04774,172.4979 C91.9085291,171.031314 89.8194451,169.488312 87.7016678,167.991705 C85.8445506,166.679317 83.9597771,165.398314 82.137576,164.038848 C80.4498533,162.78002 79.1759373,161.214161 77.1335232,160.674468 C75.3465838,160.201981 73.079117,160.510377 71.2282225,160.449653 C68.7443455,160.368119 66.2220955,160.341168 63.7406385,160.460911 Z M181.302172,155.105603 C181.025263,155.413658 181.501642,159.14784 181.434576,159.813416 L181.412039,160.051554 C181.304765,161.244234 181.207193,163.008698 180.496683,163.930364 C180.205256,164.308353 179.095549,164.72728 178.694533,165.021689 C177.391578,165.977921 176.187494,167.166132 174.891453,168.157502 C172.061527,170.322072 169.305236,172.568176 166.417578,174.661788 C164.376892,176.141338 162.040976,176.873778 159.774201,177.948728 C161.351068,178.227255 164.403329,176.769021 166.059988,176.260158 L166.170746,176.226965 C168.279189,175.611538 170.348222,174.927541 172.504719,174.363968 C176.926262,173.208507 181.456355,171.904307 185.95015,170.674135 L187.061409,170.369894 C189.48305,169.705174 191.981932,168.998449 194.300609,168.131575 C195.487408,167.687744 196.419078,166.656119 197.203133,167.706166 C197.82851,168.544361 197.071765,169.647286 196.590892,170.268512 C193.785512,173.891481 186.166906,174.773002 182.089338,176.27609 L180.939963,176.701536 C176.729163,178.265501 172.551648,179.857439 168.207974,180.949447 C162.805721,182.307849 156.952798,183.354811 151.879942,185.677419 L151.510168,185.849666 C147.350591,187.820446 142.653814,188.617808 138.215961,189.754071 L137.836226,189.85233 C133.564373,190.969583 128.498439,191.193374 124.460972,193.090145 C126.205045,194.44927 128.785373,195.158171 130.818107,196.072101 C133.306478,197.190718 135.820777,198.211085 138.281838,199.396567 C139.329318,199.901122 140.425543,200.65096 141.485469,201.070228 C142.792503,201.587542 142.667058,201.337374 143.9328,201.22352 L145.053032,201.132039 C147.050463,200.974828 149.389983,200.892479 150.886865,202.216478 C153.006371,204.091075 151.663314,206.144773 151.974447,208.438296 L152.007565,208.671737 C152.200479,209.961135 152.382884,209.778584 153.974353,209.986499 L154.065951,209.998697 C155.694558,210.219418 157.321437,210.476984 158.92792,210.820517 C160.778999,211.216611 162.670732,211.862926 164.485352,212.446041 L164.872976,212.569913 C167.820946,213.506267 168.183135,214.605508 171.169944,213.469602 L171.316537,213.412885 C180.209058,209.915458 189.40649,207.040622 198.355707,203.731166 C202.360095,202.250476 206.381121,199.433454 210.164622,197.248748 L211.020061,196.758413 C215.790434,194.006247 220.095284,190.991984 223.347623,186.438825 C224.883928,184.288241 226.485916,180.655379 226.163029,177.985231 C225.881769,175.658774 224.175127,173.07937 223.020344,171.049201 L222.930359,170.89008 C221.587625,168.501726 220.391249,167.444945 218.48388,165.95875 L217.904527,165.509869 C216.337109,164.299484 213.915459,161.742937 211.939074,161.758971 C210.635082,161.35676 209.339387,160.999239 208.063742,160.548585 C207.72841,159.846507 207.171482,159.633632 206.393304,159.90996 C205.755828,159.966249 205.135637,159.888468 204.533076,159.675934 C201.868742,159.226645 198.917474,158.643286 196.371717,157.88526 C194.310697,157.271507 192.356532,156.722883 190.287669,156.247075 L189.54402,156.079544 C187.97415,155.716821 182.178713,154.131041 181.302172,155.105603 Z M65.7401854,119.539786 C62.0052088,127.559783 56.7705721,134.998127 52.6598162,142.863244 C51.0360486,145.969718 50.1776678,150.66832 52.6470252,153.67859 C55.2456756,156.846812 60.0913963,155.61357 63.7596521,155.781413 C67.6311814,155.958809 71.1628846,156.391723 74.9815213,157.475202 C76.7089998,157.96577 78.2816033,157.820783 79.9420154,158.608148 C81.8893611,159.531288 83.8045564,160.717111 85.6571795,161.811507 C89.1349372,163.865639 92.394407,166.413692 95.6758258,168.776796 L96.2880917,169.216768 C98.0027294,170.472134 105.026497,176.062854 99.1555037,175.168731 C99.1555037,180.755676 98.1636814,186.477374 97.6430525,192.037369 C99.0784119,190.345968 100.102039,188.626934 100.970445,186.594728 C101.486926,185.385708 101.493494,182.300385 103.21475,183.031801 C105.804066,184.131655 103.787234,192.214424 103.787234,194.400827 C104.428859,193.177478 104.878273,191.859973 105.340133,190.563619 C105.689984,189.58146 106.127299,186.796687 106.857424,186.137934 C109.277104,183.955495 109.637075,189.826379 109.644032,191.161482 L109.643845,191.200191 L109.729469,190.953664 C110.446487,188.808923 110.584283,186.531869 110.660849,184.276642 C110.691963,183.35282 110.460687,181.915231 110.697148,181.021429 L110.800264,180.633645 C111.096631,179.543621 111.195898,179.568318 112.624789,178.999116 L112.904463,182.049984 C113.042398,183.368171 112.261801,188.801601 113.035138,189.637408 C114.357453,191.066809 117.60084,189.398606 118.855742,188.972856 C122.932273,187.589851 127.67048,187.892447 131.821683,186.797369 C135.848779,185.735041 139.787721,184.358517 143.837287,183.276403 C146.009685,182.695432 148.071459,181.785254 150.20825,181.093752 C152.587033,180.323786 155.242379,179.901788 157.44831,178.743598 C157.177936,178.080626 147.820312,179.65283 146.58059,179.768749 L146.545525,179.771812 C142.777707,180.073726 139.230447,179.50026 135.516904,178.826497 C127.325814,177.339783 119.607992,173.814382 111.522687,171.52734 C111.901578,175.206939 122.395051,175.939721 121.144988,180.209843 C120.796174,181.400101 116.101871,183.345655 114.549318,182.598887 C111.395123,181.081129 115.253515,178.945215 116.825773,178.412687 C114.432471,177.058679 112.142187,175.589705 109.957689,173.921161 C107.619008,172.134921 106.612666,169.628864 105.359146,167.042978 C102.739062,161.636499 96.5385311,158.491476 91.7221951,155.125731 C86.8205315,151.700466 81.619989,148.758406 76.6857571,145.396815 L75.7638475,144.761379 C74.8349432,144.113202 74.4010857,144.410682 74.074742,143.227247 C73.7337018,141.989363 74.9496988,140.424064 75.586617,139.451335 L75.6310975,139.382874 C77.2676561,136.841338 79.1738631,134.435918 81.3358904,132.308533 C78.5477947,130.435984 75.5360291,128.890252 72.9214764,126.770713 C70.2713162,124.622176 68.0781756,121.999447 65.7401854,119.539786 Z M324.272193,137.673051 C325.649474,146.526127 325.221148,154.919679 324.29259,163.803799 C323.799617,168.521163 323.103717,173.202025 322.784633,177.939859 C322.700281,179.191182 322.672971,180.457515 322.563037,181.70645 C322.498045,182.442301 321.759623,183.836564 321.753054,184.197838 C321.716756,186.203434 323.892611,189.714848 324.606834,191.556695 L324.612624,191.735354 C324.641382,192.446988 324.748652,193.11909 325.342836,193.626085 C326.77059,189.164239 327.216547,184.700346 327.808045,180.060421 L328.117263,177.629829 C328.602757,173.768735 329.046053,169.856809 329.123445,166.026364 C329.225036,161.002912 328.763567,155.55293 327.96325,150.557435 L327.807084,149.600882 C327.173053,145.671201 326.609115,140.965059 324.272193,137.673051 Z M156.663564,68.1847154 C153.187392,68.766782 149.827571,69.2802641 146.317792,69.5026811 L145.731394,69.5370174 C145.091514,69.5713694 144.170792,69.6751472 143.257266,69.6699853 C143.007173,69.7696899 142.658364,69.8678708 142.331646,69.8792227 C142.571946,70.0928951 142.894211,70.5438892 143.320461,71.3072232 C144.681494,73.7447102 144.781402,77.6985904 144.470961,80.371468 C142.986857,93.1569315 129.85325,97.9401372 118.528361,94.8623195 C112.71882,93.2831555 108.532355,89.0563586 105.415496,84.0807466 C104.688482,82.9205096 104.023349,81.7230878 103.373773,80.5191841 C103.11415,80.0381685 102.88564,79.3664523 102.539246,78.9444549 L102.412257,78.7875476 C101.267501,77.3510962 102.467351,78.2054535 101.074156,78.0052805 C98.8436795,77.6852857 95.3337557,79.3708872 93.677492,80.7064732 C89.1836971,84.3297831 86.6946346,90.1258508 83.2455545,94.6924289 C79.5734959,99.553757 74.9099607,103.88051 70.2319061,107.759338 L86.1065936,123.804791 L86.2512767,123.64423 C87.3733234,122.380562 89.2901001,119.813675 89.5684646,118.285051 C89.7388963,117.349288 88.9738553,114.269424 91.3267107,115.640148 C92.9152166,116.566017 93.5177771,120.527744 94.0131697,122.148528 C94.7785564,124.651856 96.0673377,127.009174 96.9004822,129.486575 C98.3269065,133.729589 100.058793,137.938013 101.561849,142.201464 L101.932537,143.268525 C102.576236,145.150968 104.411574,147.487135 102.648142,149.080968 C99.9679061,151.502421 99.1710604,146.734908 98.4613318,144.91353 C97.4729666,146.269585 97.6012225,148.46827 97.0916561,150.049822 C96.7805232,151.015947 95.832951,152.519718 95.86441,153.471515 C95.9179939,155.099122 97.4152342,155.583549 98.7645135,156.493043 L99.6031935,157.056073 C101.843657,158.556138 104.105972,160.055933 106.149769,161.807754 C107.109096,162.629916 107.991676,163.461629 108.691724,164.519182 C109.302928,165.442663 109.486842,167.524335 110.162346,168.167054 C111.045963,169.006955 114.312166,168.421549 116.036879,168.604403 C118.796929,168.897333 121.592539,169.837874 124.281616,170.554986 L124.63175,170.647184 C129.579453,171.931939 134.668203,173.781973 139.849947,174.468359 C144.814581,175.126021 149.480771,174.823524 154.415117,173.974591 L154.785705,173.909903 C157.55617,173.419335 160.531637,172.833247 163.059763,171.518471 C165.971621,170.004465 168.553678,167.58233 171.27367,165.753106 C172.08515,165.207273 172.909076,164.681302 173.737048,164.161345 L175.306303,163.180125 C176.585157,162.369622 176.217348,162.453885 176.317824,160.923846 L176.334083,160.709067 C176.499222,158.754192 177.203245,155.312698 175.95933,153.676885 C175.420033,152.968325 173.765844,152.450124 172.986974,151.934653 C171.854797,151.184473 170.839467,150.313187 169.626049,149.7097 L169.476017,149.637445 C168.297365,149.08857 168.238145,149.509186 167.64759,147.956551 C167.088933,146.488942 166.720414,144.951739 166.207736,143.468778 C163.861795,136.685775 163.255777,129.797017 162.28366,122.714489 L162.232876,122.357595 C161.755699,119.106691 160.768665,114.833849 161.97875,111.74358 C163.723859,107.28651 165.184109,113.519926 165.552283,115.117512 C167.218226,112.301695 168.175478,109.169976 169.908488,106.389978 L170.216241,105.894164 C171.025773,104.580822 171.474338,103.750606 171.982707,102.164887 C172.213291,101.445752 172.305594,100.848405 172.793035,100.251059 C173.824267,98.9874549 173.976722,99.7076138 175.048748,99.6765695 C178.180843,99.5859709 181.263158,99.6533316 184.390633,99.7868763 L185.113203,99.8188273 C186.978963,99.9041138 188.845068,99.9491451 190.723965,99.9423221 C191.639387,99.9389107 192.565871,99.8949029 193.480601,99.946757 C193.973574,99.9416398 194.464127,99.9778013 194.95226,100.055583 C195.959638,100.519541 196.34406,100.119718 196.105871,98.8557727 C196.98292,97.0453117 196.924496,94.1564888 197.234937,92.1812544 C197.48495,90.5906961 197.72036,88.9979544 197.938335,87.4026801 L198.098504,86.205744 C198.237822,85.138981 199.409756,81.1138013 198.787836,80.2373977 C198.171447,79.3684992 194.959519,79.5632935 194.009181,79.4073898 C187.691111,78.3709888 181.814158,75.8018195 175.904709,73.6969497 C172.995271,72.6608898 170.233795,71.2618508 167.443279,69.9907414 C165.990635,69.3289185 164.617847,67.9660409 163.086728,67.5416555 C161.154594,67.0060565 158.589476,67.8623326 156.663564,68.1847154 Z M90.9333006,124.896799 C89.6683729,126.090468 88.2119256,126.924228 88.1963689,128.479512 C88.1877264,129.368538 88.7882127,129.923241 88.4400896,130.930304 C88.205454,131.608556 87.238357,132.500287 86.7172617,133.035047 L86.2508948,133.52304 C85.1813474,134.635119 85.0776932,134.565918 83.6935857,133.276364 L76.6927518,143.239869 L76.6927518,143.239869 L93.115033,152.506413 C93.7998709,150.173317 94.1148064,147.740947 94.7567771,145.389429 C95.2137967,143.718155 96.389533,141.357426 96.3152068,139.890158 C96.2042361,137.699661 94.4850545,134.791734 93.7355701,132.70358 L90.9333006,124.896799 Z M241.390526,125.63555 C241.633901,126.475451 240.81977,128.345613 240.6725,129.167774 L240.591724,129.626961 C240.343261,131.076263 240.174062,132.484248 240.358602,133.970425 C242.256699,132.293912 243.195925,128.069263 245.102685,132.310622 L245.160764,132.441751 C245.866344,134.058441 245.943782,136.720743 247.822332,134.265175 C248.825217,132.95381 248.889518,130.53304 249.358983,128.98799 C252.561231,129.743628 251.977684,134.416644 250.90877,136.693451 C249.206528,140.318808 246.890662,139.151407 244.432022,137.046196 L243.724368,135.946683 L243.724368,135.946683 L243.591379,136.084189 C241.991062,137.706676 240.233037,138.319868 238.624901,136.189238 C237.009213,134.049571 237.502913,130.895391 238.123381,128.474904 L238.245959,128.012088 C238.633061,126.629171 240.309111,121.906178 241.390526,125.63555 Z M63.5460076,111.892661 C66.7437615,115.05133 69.5404998,118.651783 72.9387615,121.594848 C74.4523486,122.905725 75.9984458,124.185022 77.5504936,125.452718 L78.3268904,126.085692 C79.8635408,127.336333 82.3073162,130.093473 84.3072088,130.476239 L84.3672528,130.242293 C84.6369247,129.22766 85.1273702,127.741487 84.982367,126.7847 C85.5659139,126.189059 85.3847654,125.754098 84.4389217,125.479135 C83.8602146,125.04008 83.288076,124.593861 82.7214686,124.139455 C80.4985975,122.308525 78.3949939,120.319645 76.2886248,118.361127 C74.194701,116.414549 72.2577264,114.377908 70.4400193,112.178541 L70.2838594,111.985622 C69.4170763,110.893855 68.835131,109.840176 67.3518533,109.518627 C65.4860936,109.114369 64.8652107,110.549911 63.5460076,111.892661 Z M201.460467,80.4236633 C201.236797,80.6495018 201.322185,83.9848846 201.292801,84.3666268 C201.192547,85.6749211 201.04424,86.9798039 200.899736,88.2840044 C200.313769,93.5785878 199.201642,98.7039628 198.367806,103.954879 C200.428197,102.693322 203.405738,104.413379 205.165713,103.047773 C206.556476,101.968728 206.348017,98.5156503 206.451728,96.992093 C206.798814,91.8926451 206.91739,86.7805747 207.081599,81.6729393 L206.907018,81.0279802 C206.65567,80.1388187 206.59172,80.3718822 205.351355,80.2012362 L205.296906,80.1964896 C204.763668,80.1645838 201.646988,80.2360046 201.460467,80.4236633 Z M210.723582,79.9655044 C211.955369,82.4568268 211.009386,86.3063663 211.018858,89.033055 L211.020541,89.1921346 C211.069631,91.9114081 210.727385,94.5399367 210.242363,97.221343 C213.176346,97.221343 216.84875,96.2217857 219.810388,95.7752258 C223.042929,95.2878137 226.335022,95.2336634 229.628558,94.9080686 L230.287267,94.8391216 C231.441916,94.7105096 232.58481,94.6310227 233.745336,94.5720044 C232.049662,92.2174159 230.509554,89.7563898 229.10358,87.2230409 C228.414594,85.9819523 227.76398,84.7210773 227.141023,83.4465565 C226.425763,81.9840643 226.445469,81.0291971 224.891879,80.7385409 C222.740568,80.3363299 219.863281,81.1400695 217.65009,81.0486424 C215.940242,80.9776841 212.100863,79.3899914 210.723582,79.9655044 Z M250.089592,84.5534724 C248.529434,86.6627771 246.601793,85.4564854 246.112969,83.5996286 C245.864062,82.6526078 246.084967,81.511475 245.758969,80.4552875 C245.357953,79.1548396 244.820385,77.8881651 244.390676,76.5959047 C247.743305,75.6748109 252.26441,81.6127953 250.089592,84.5534724 Z M281.639891,80.5876347 L281.618215,80.6040915 C281.469652,80.7203843 281.34082,80.9173013 281.208992,81.3092779 C281.016849,81.8798888 281.257633,82.8553143 281.456058,83.6211946 C281.259578,82.2799755 281.246285,81.1149498 281.605151,80.6309947 L281.639891,80.5876347 Z M226.09458,70.2090747 C225.346222,70.5411992 226.69439,72.943477 227.001182,73.5431813 L227.031781,73.6041581 C227.634342,74.8384237 228.368961,77.3888299 229.795678,76.6867518 L226.09458,70.2090747 Z M284.503197,55.4596346 C280.755775,56.0320773 278.502137,59.0730513 276.610449,61.970744 C278.531176,61.7377414 285.302463,58.6872154 286.088937,60.3369966 C287.231486,62.7338872 280.120027,64.8769654 279.416867,66.9801294 C280.872623,67.4874133 284.083513,65.5196841 283.180191,68.7936607 C283.026008,69.2518195 282.757051,69.6311737 282.374012,69.9317232 C281.709224,70.1640435 281.551929,70.6017336 281.901781,71.2451346 C281.604131,72.5275018 281.664974,74.1499914 281.474838,75.4900122 L280.918947,76.3711919 L280.918947,76.3711919 C281.629363,76.8205919 285.744972,72.3115381 286.74958,71.4011142 L286.786221,71.3682883 C288.033517,70.2653638 290.007482,68.7926372 290.569941,67.1800409 C291.223666,65.3061268 290.580658,62.3477102 290.422326,60.4100018 C290.309281,59.023244 290.549545,57.1053221 289.403885,56.136468 C288.34949,55.2450539 285.751877,55.2689341 284.503197,55.4596346 Z M204.762588,74.7565828 L203.054815,74.7419135 L203.054815,74.7419135 C203.626954,74.4150958 204.195289,74.5085698 204.762588,74.7565828 Z M140.544396,37.0587742 C141.922022,38.8156753 144.321894,39.1994643 144.533118,41.8569904 C144.663448,43.4931258 144.538649,44.253881 145.221759,45.8606779 C145.850593,47.3398862 146.598003,48.7583706 147.125546,50.2805633 L147.23972,50.6150904 C148.028321,52.9611003 149.071363,56.8521088 147.592245,58.9688654 C146.283413,60.8420971 143.105364,62.2701336 141.038751,63.071144 C140.003716,63.4719904 138.568702,63.7162508 137.731409,64.4971336 C136.638642,65.5157951 136.978813,66.1417977 137.056942,67.6923055 L137.07178,67.8473894 C137.214346,69.1842939 137.853402,72.1947682 136.954614,73.1397221 C135.714577,74.4446049 135.126882,72.7661674 134.590696,71.4428628 C133.469927,68.6775346 132.912999,63.3225685 135.127573,61.0181284 C137.439636,58.6116857 142.007757,58.546868 144.47504,56.1503185 L144.855642,55.7815458 C145.436746,55.2092517 145.357259,55.1594975 145.283985,53.8834044 C145.235241,53.0336102 144.678313,51.9044174 144.409011,51.1405919 C143.708962,49.1558055 142.941155,47.1948992 142.208956,45.2217117 C140.929509,45.7972247 139.088294,47.5725477 137.82786,46.0844695 C136.662841,44.7086284 138.601198,42.4543367 139.951169,42.0521258 C139.24628,40.5316388 135.925802,40.812743 135.293165,38.5792612 C134.743497,36.6381414 136.322669,37.4094721 136.668026,36.6449643 C137.074573,35.7453628 136.24212,34.5291779 136.670446,33.7001935 C138.157315,30.8219461 139.803899,36.1141414 140.544396,37.0587742 Z M255.644073,55.7202018 C256.783165,57.5947982 254.628397,61.0229727 254.238098,62.9477174 C256.146034,62.7297253 260.867993,58.1880508 262.196876,58.9368659 C264.963538,60.4952201 259.119427,65.9303555 257.996583,66.726931 C249.022475,73.0920299 250.640366,54.6800482 255.644073,55.7202018 Z M277.821101,49.0099315 C276.789178,49.6533326 275.995097,51.7155591 275.358658,52.7229628 L274.961015,53.3530028 C274.104965,54.7137261 273.290547,56.0540699 272.631406,57.5297076 C273.923299,57.0057076 274.684883,55.8662805 275.839877,55.2433482 C276.629117,54.8179393 277.348871,54.7770018 278.109072,54.4669003 C279.790226,53.7818794 282.092263,53.1101633 283.595381,52.1140174 L283.459536,51.9378332 C282.17238,50.2508846 280.343828,47.4377903 277.821101,49.0099315 Z M141.270372,51.0006539 C143.820278,53.1154169 138.610187,58.2711539 135.998399,54.2340341 L135.909932,54.0928425 C135.271072,53.0384381 135.194676,52.0926109 136.214464,51.7000029 C136.752378,51.4932685 138.020763,52.170443 138.779927,52.0507008 C139.612034,51.9193596 140.516048,51.3417997 141.270372,51.0006539 Z M132.184845,35.503388 C133.915089,36.3412422 135.344917,42.7455729 132.509114,42.5442969 C131.519712,41.3264063 128.739221,33.8348438 132.184845,35.503388 Z M317.548855,239.072271 C316.975334,239.429451 316.400084,239.42024 315.823451,239.079776 L317.548855,239.072271 L317.548855,239.072271 Z M48.1302064,231.089663 L51.0790541,231.262624 L51.0790541,231.262624 C50.091726,231.275588 49.0912611,231.51166 48.1302064,231.089663 Z M87.3388178,228.62004 L85.8650854,228.596842 L85.8650854,228.596842 C86.3622064,228.260814 86.8520678,228.332795 87.3388178,228.62004 Z M221.177057,207.09674 L219.463406,207.058532 L219.463406,207.058532 C220.044533,206.651204 220.609758,206.920027 221.177057,207.09674 Z M237.785499,192.156429 C239.073935,193.592994 240.157022,195.196038 241.445804,196.63158 C241.958136,197.201635 242.586278,197.692885 243.077868,198.273515 L243.211291,198.432727 C244.183222,199.606199 244.001933,199.734301 244.001933,201.515424 C241.005724,199.23077 238.393591,195.814195 237.785499,192.156429 Z M231.040382,175.231502 C232.03255,178.50582 234.334241,182.619015 233.476206,186.072093 C232.038081,182.803234 230.789747,178.838096 231.040382,175.231502 Z M195.030561,104.67364 C195.005325,104.211728 194.756073,103.979067 194.28246,103.975996 C195.233143,103.469054 195.482741,103.701715 195.030561,104.67364 Z M281.474941,75.4901828 C281.844152,75.841563 281.358785,76.6493964 280.919051,76.3710214 L281.474941,75.4901828 Z M144.521399,41.2582453 C144.773762,41.6536333 144.854657,42.0507271 144.545252,42.455326 L144.521399,41.2582453 L144.521399,41.2582453 Z M192.200172,219.515566 L192.225734,219.575548 C193.514169,222.576266 194.261579,226.057318 194.115693,229.310826 C194.400552,230.135376 194.295804,232.053639 193.48755,232.63461 C191.810544,233.840902 191.638038,231.638123 191.305126,230.448207 C190.381753,227.147621 188.894884,223.461881 188.515993,220.068503 L188.496691,219.879766 C188.397431,218.808029 188.417415,217.057767 189.732177,216.72698 C191.054548,216.394716 191.736086,218.418358 192.200172,219.515566 L192.200172,219.515566 Z M61.8747404,231.494126 L60.4220959,231.514594 C60.9008947,231.128417 61.3869533,231.246795 61.8747404,231.494126 Z M112.817207,168.436934 L114.363192,168.458768 C113.842563,168.812536 113.330231,168.589768 112.817207,168.436934 Z M66.0044754,155.852679 L67.5342117,155.868371 L67.5342117,155.868371 C67.0211883,156.152546 66.5112762,156.160051 66.0044754,155.852679 Z M187.149429,150.293673 C186.640208,150.589788 186.128913,150.534181 185.616581,150.303225 L187.149429,150.293673 Z" id="Shape" fill="#000000"></path>
                </g>
            </g>
        </g>
    </g>
</svg>